<svg xmlns="http://www.w3.org/2000/svg" viewBox="0 0 32 32">
  <defs>
    <linearGradient id="grad" x1="0%" y1="0%" x2="100%" y2="100%">
      <stop offset="0%" style="stop-color:#4F46E5;stop-opacity:1" />
      <stop offset="100%" style="stop-color:#06B6D4;stop-opacity:1" />
    </linearGradient>
  </defs>
  
  <!-- Background circle -->
  <circle cx="16" cy="16" r="15" fill="url(#grad)" stroke="#ffffff" stroke-width="0.5"/>
  
  <!-- Simplified brain shape (left side) -->
  <path d="M7 15c0-4 3-7 7-7s7 3 7 7" fill="none" stroke="#ffffff" stroke-width="2" stroke-linecap="round"/>
  <path d="M9 18c0 2 2 4 4 4s4-2 4-4" fill="none" stroke="#ffffff" stroke-width="2" stroke-linecap="round"/>
  <path d="M11 20c1 1 2 1 3 1s2 0 3-1" fill="none" stroke="#ffffff" stroke-width="1.5" stroke-linecap="round"/>
  
  <!-- Chart bars (right side) -->
  <rect x="20" y="19" width="2" height="5" fill="#ffffff" rx="1"/>
  <rect x="23" y="16" width="2" height="8" fill="#ffffff" rx="1"/>
  <rect x="26" y="21" width="2" height="3" fill="#ffffff" rx="1"/>
  
  <!-- AI indicator dots -->
  <circle cx="11" cy="12" r="1" fill="#ffffff"/>
  <circle cx="16" cy="11" r="1" fill="#ffffff"/>
  <circle cx="21" cy="12" r="1" fill="#ffffff"/>
</svg> 